#!OML:ASF F:\VICON\USERDATA\INSTALL\rory3\rory3.ASF
:FULLY-SPECIFIED
:DEGREES
421
root 4.96456 16.4385 2.31351 6.49756 -11.6839 -8.37885
lowerback 19.9525 -0.880603 4.50224
upperback 4.1111 -0.0898023 2.22351
thorax -6.70102 -0.126559 -0.143421
lowerneck -14.485 -0.671537 -1.94744
upperneck 35.7929 -0.0237186 -1.47426
head 14.8358 -0.538925 -0.287355
rclavicle 9.64106e-015 -1.03368e-014
rhumerus -45.0786 4.48309 -28.244
rradius 38.12
rwrist 8.32345
rhand -20.6646 -47.4556
rfingers 7.12502
rthumb 5.69814 -77.359
lclavicle 9.64106e-015 -1.03368e-014
lhumerus -35.4109 -1.74198 28.7242
lradius 27.6754
lwrist 10.5254
lhand -23.6307 -32.7001
lfingers 7.12502
lthumb 2.834 -2.73917
rfemur -106.364 3.17406 27.3803
rtibia 106.837
rfoot 49.6331 5.46522
rtoes -3.69933
lfemur -31.9577 4.65555 -22.0286
ltibia 52.7747
lfoot -24.1343 6.77721
ltoes 16.1872
422
root 4.96316 16.4305 2.30791 6.50687 -11.676 -8.55828
lowerback 20.024 -0.87438 4.65544
upperback 4.14497 -0.0453439 2.25291
thorax -6.70025 -0.107571 -0.20942
lowerneck -14.2912 -0.686307 -1.82654
upperneck 35.4704 -0.0613083 -1.55475
head 14.6384 -0.544808 -0.343415
rclavicle -1.98785e-016 -1.98785e-014
rhumerus -45.1332 4.3618 -27.7082
rradius 37.8738
rwrist 8.51401
rhand -20.7586 -47.213
rfingers 7.12502
rthumb 5.60739 -77.1188
lclavicle -1.98785e-016 -1.98785e-014
lhumerus -35.3407 -1.58823 28.1447
lradius 27.7632
lwrist 10.6262
lhand -23.2235 -31.4286
lfingers 7.12502
lthumb 3.2273 -1.47329
rfemur -106.413 3.19255 27.5954
rtibia 106.772
rfoot 49.8694 5.72815
rtoes -3.90792
lfemur -32.0781 4.93024 -21.8432
ltibia 52.9485
lfoot -24.1475 6.58474
ltoes 16.1371
423
root 4.96187 16.4183 2.29565 6.50506 -11.6188 -8.60204
lowerback 20.1374 -0.877008 4.70992
upperback 4.20205 -0.0352412 2.22462
thorax -6.69783 -0.1034 -0.27287
lowerneck -14.3939 -0.702671 -1.69606
upperneck 35.3625 -0.120017 -1.55992
head 14.6106 -0.551485 -0.377392
rclavicle -2.69353e-014 0
rhumerus -45.0395 4.02241 -27.1746
rradius 37.5004
rwrist 8.66612
rhand -20.7799 -47.5058
rfingers 7.12502
rthumb 5.58686 -77.4122
lclavicle -2.69353e-014 0
lhumerus -35.1468 -1.35885 27.5285
lradius 27.7542
lwrist 10.8311
lhand -22.7663 -30.2005
lfingers 7.12502
lthumb 3.66876 -0.252347
rfemur -106.566 3.13608 27.6848
rtibia 106.702
rfoot 50.1404 6.04421
rtoes -3.54799
lfemur -32.2737 5.10922 -21.8043
ltibia 53.1833
lfoot -24.2426 6.4003
ltoes 16.205
424
root 4.95757 16.4052 2.28325 6.46193 -11.5544 -8.61602
lowerback 20.2614 -0.881733 4.66048
upperback 4.289 -0.0483499 2.22193
thorax -6.66961 -0.107805 -0.244118
lowerneck -14.5838 -0.72549 -1.75358
upperneck 35.4106 -0.192495 -1.38712
head 14.6767 -0.567021 -0.309475
rclavicle -9.24349e-015 -3.49861e-014
rhumerus -44.8791 3.78051 -26.6739
rradius 37.2538
rwrist 8.70412
rhand -20.1574 -48.1202
rfingers 7.12502
rthumb 6.18782 -78.0098
lclavicle -9.24349e-015 -3.49861e-014
lhumerus -35.1121 -1.27167 27.0172
lradius 27.6679
lwrist 10.8874
lhand -22.9549 -31.0548
lfingers 7.12502
lthumb 3.48668 -1.10352
rfemur -106.737 3.09903 27.7532
rtibia 106.679
rfoot 50.3297 6.13597
rtoes -3.35749
lfemur -32.4286 5.25917 -21.7635
ltibia 53.4301
lfoot -24.2955 6.17629
ltoes 16.407
425
root 4.95032 16.3948 2.27113 6.47181 -11.5127 -8.7645
lowerback 20.359 -0.878349 4.71586
upperback 4.34882 -0.0275062 2.24627
thorax -6.65523 -0.098007 -0.254235
lowerneck -14.7603 -0.760005 -1.971
upperneck 35.6372 -0.311017 -1.00162
head 14.8253 -0.59637 -0.134327
rclavicle -4.56211e-014 -1.59028e-015
rhumerus -44.8515 3.66317 -26.2182
rradius 37.0363
rwrist 8.6698
rhand -19.7202 -47.837
rfingers 7.12502
rthumb 6.60991 -77.7139
lclavicle -4.56211e-014 -1.59028e-015
lhumerus -35.0842 -1.31563 26.5312
lradius 27.6862
lwrist 11.0511
lhand -23.2334 -31.6935
lfingers 7.12502
lthumb 3.21767 -1.738
rfemur -106.888 3.153 27.9415
rtibia 106.637
rfoot 50.3816 5.92612
rtoes -3.31152
lfemur -32.6214 5.4755 -21.5592
ltibia 53.6646
lfoot -24.2876 5.9703
ltoes 16.3701
426
root 4.94662 16.3869 2.26605 6.51103 -11.4454 -8.82285
lowerback 20.3159 -0.885221 4.78491
upperback 4.37861 -0.028421 2.21985
thorax -6.59983 -0.0984643 -0.322356
lowerneck -14.9244 -0.777017 -1.9852
upperneck 35.9216 -0.388195 -0.834919
head 14.999 -0.611232 -0.0785185
rclavicle -1.22253e-014 -3.49861e-014
rhumerus -44.9459 3.55369 -25.7589
rradius 36.786
rwrist 8.94125
rhand -20.1757 -47.0428
rfingers 7.12502
rthumb 6.17024 -76.9329
lclavicle -1.22253e-014 -3.49861e-014
lhumerus -35.0606 -1.49356 26.0571
lradius 27.8546
lwrist 11.3785
lhand -23.1203 -30.4294
lfingers 7.12502
lthumb 3.32695 -0.47563
rfemur -107.037 3.08162 28.0632
rtibia 106.638
rfoot 50.3764 6.10727
rtoes -3.49819
lfemur -32.7932 5.66585 -21.4949
ltibia 53.8559
lfoot -24.3615 5.90984
ltoes 15.6201
427
root 4.94705 16.3793 2.269 6.49654 -11.3637 -8.72325
lowerback 20.1638 -0.901119 4.77529
upperback 4.45951 -0.0706541 2.148
thorax -6.43315 -0.115217 -0.385899
lowerneck -14.9364 -0.785929 -1.85677
upperneck 35.901 -0.418564 -0.896421
head 14.991 -0.614644 -0.131869
rclavicle 1.21259e-014 -1.43125e-014
rhumerus -44.8867 3.41229 -25.2914
rradius 36.4318
rwrist 9.29409
rhand -20.6129 -46.4564
rfingers 7.12502
rthumb 5.74812 -76.3584
lclavicle 1.21259e-014 -1.43125e-014
lhumerus -35.0609 -1.53647 25.5803
lradius 28.0077
lwrist 11.4582
lhand -23.2999 -29.3114
lfingers 7.12502
lthumb 3.15348 0.645063
rfemur -107.17 2.87389 28.0537
rtibia 106.676
rfoot 50.4675 6.58617
rtoes -3.9425
lfemur -32.8566 5.83871 -21.633
ltibia 53.9932
lfoot -24.4751 5.864
ltoes 13.7316
